<svg width="483" height="99" viewBox="0 0 483 99" fill="none" xmlns="http://www.w3.org/2000/svg">
<g clip-path="url(#clip0_6189_6589)">
<path d="M225.8 51.5L266.6 98.3H236.1L210.6 66.7L225.8 51.5Z" fill="url(#paint0_linear_6189_6589)"/>
<path d="M188.5 55.7992L196.8 5.69922L216.1 5.89923L211.4 32.8992L188.5 55.7992Z" fill="url(#paint1_linear_6189_6589)"/>
<path d="M289.101 40.3004L290.801 31.7004H260.101L252.301 70.9004H283.701L285.501 62.3004H264.901L266.301 55.1004H283.801L285.401 46.8004H268.001L269.301 40.2004H289.101V40.3004ZM289.901 70.9004H319.701L321.501 62.1004H302.801L308.901 31.7004H297.801L289.901 70.9004ZM356.501 57.8004C356.501 45.7004 337.601 48.8004 337.401 43.4004C337.201 38.0004 351.701 40.0004 356.501 40.8004L358.101 32.5004C345.201 29.9004 327.001 30.4004 326.401 44.2004C325.901 56.5004 345.701 53.3004 345.301 59.6004C344.901 64.9004 328.601 62.6004 325.101 62.2004L323.401 70.8004C334.601 72.3004 356.501 73.5004 356.501 57.8004ZM380.401 71.7004C394.801 71.7004 404.901 61.8004 404.901 48.2004C404.901 38.1004 397.501 30.9004 385.401 30.9004C371.001 30.9004 360.901 40.8004 360.901 54.4004C360.901 64.6004 368.401 71.7004 380.401 71.7004ZM381.401 62.5004C375.501 62.5004 372.201 59.0004 372.201 53.8004C372.201 46.4004 376.901 40.1004 384.501 40.1004C390.401 40.1004 393.701 43.6004 393.701 48.8004C393.701 56.3004 389.001 62.5004 381.401 62.5004ZM441.501 40.3004L443.201 31.7004H412.501L404.701 70.9004H415.801L418.501 57.5004H435.801L437.501 48.9004H420.201L421.901 40.3004H441.501ZM451.201 70.9004H462.301L468.401 40.5004H480.401L482.201 31.7004H447.001L445.201 40.5004H457.301L451.201 70.9004Z" fill="url(#paint2_linear_6189_6589)"/>
<path d="M19.9 33.4004C7.5 33.4004 0 43.5004 0 55.3004C0 64.2004 5.5 70.2004 15.1 70.2004C19.6 70.2004 23.8 68.4004 26.7 65.6004L29.2 51.9004H26.9L24.6 64.4004C22 66.5004 19 67.7004 15.4 67.7004C6.8 67.7004 2.4 62.6004 2.4 55.1004C2.4 44.5004 9.2 35.7004 19.8 35.7004C24.4 35.7004 27.8 37.0004 30 40.0004L31.7 38.3004C29.3 35.2004 25.2 33.4004 19.9 33.4004ZM65.9 43.6004C65.9 37.2004 61.7 33.6004 54.5 33.6004H43L36.4 69.9004H38.8L41 58.0004H50.8C51.6 58.0004 52.4 57.9004 53.1 57.9004L59.2 69.9004H61.8L55.5 57.5004C62 56.0004 65.8 51.2004 65.9 43.6004ZM50.8 55.7004H41.4L45 36.0004H54.4C60.3 36.0004 63.6 38.8004 63.6 43.8004C63.5 51.7004 58.8 55.7004 50.8 55.7004ZM83.8 70.2004C91.9 70.2004 97 65.1004 98.9 54.6004L102.7 33.6004H100.3L96.5 54.5004C94.9 63.6004 90.7 67.8004 83.9 67.8004C78 67.8004 74.7 64.5004 74.7 58.5004C74.7 57.3004 74.8 55.9004 75.1 54.6004L78.9 33.7004H76.5L72.7 54.6004C72.5 56.0004 72.3 57.4004 72.3 58.7004C72.3 65.9004 76.5 70.2004 83.8 70.2004ZM125.4 33.6004H113.9L107.3 69.9004H109.7L111.9 58.0004H121.7C131 58.0004 136.8 52.9004 136.8 43.6004C136.8 37.2004 132.6 33.6004 125.4 33.6004ZM121.7 55.7004H112.3L115.9 36.0004H125.2C131.1 36.0004 134.3 38.8004 134.3 43.8004C134.4 51.7004 129.8 55.7004 121.7 55.7004ZM155.8 70.2004C167.9 70.2004 175.5 60.1004 175.5 48.3004C175.5 39.4004 170.1 33.4004 160.4 33.4004C148.3 33.4004 140.7 43.5004 140.7 55.3004C140.8 64.2004 146.1 70.2004 155.8 70.2004ZM156 67.8004C147.6 67.8004 143.2 62.7004 143.2 55.2004C143.2 44.7004 149.9 35.8004 160.3 35.8004C168.7 35.8004 173.1 40.9004 173.1 48.4004C173.1 58.9004 166.4 67.8004 156 67.8004Z" fill="url(#paint3_linear_6189_6589)"/>
<path d="M268.299 0L182.499 85.6L180.699 96.5L277.499 0H268.299Z" fill="url(#paint4_linear_6189_6589)"/>
<path d="M243.799 11.3008L184.499 70.6008L183.199 78.5008L250.499 11.3008H243.799Z" fill="url(#paint5_linear_6189_6589)"/>
<path d="M222.4 22L188.5 56L187.6 61L226.7 22H222.4Z" fill="url(#paint6_linear_6189_6589)"/>
</g>
<defs>
<linearGradient id="paint0_linear_6189_6589" x1="220.333" y1="62.5688" x2="260.987" y2="109.319" gradientUnits="userSpaceOnUse">
<stop stop-color="#727271"/>
<stop offset="0.1294" stop-color="#A7A7A8"/>
<stop offset="1" stop-color="#EBECEC"/>
</linearGradient>
<linearGradient id="paint1_linear_6189_6589" x1="206.475" y1="35.7067" x2="183.941" y2="9.32679" gradientUnits="userSpaceOnUse">
<stop stop-color="#727271"/>
<stop offset="0.1804" stop-color="#A7A7A8"/>
<stop offset="1" stop-color="#EBECEC"/>
</linearGradient>
<linearGradient id="paint2_linear_6189_6589" x1="186.167" y1="44.4833" x2="463.579" y2="54.9822" gradientUnits="userSpaceOnUse">
<stop stop-color="#727271"/>
<stop offset="0.2118" stop-color="#A7A7A8"/>
<stop offset="1" stop-color="#EBECEC"/>
</linearGradient>
<linearGradient id="paint3_linear_6189_6589" x1="-98.8052" y1="45.6677" x2="175.195" y2="54.6677" gradientUnits="userSpaceOnUse">
<stop stop-color="#727271"/>
<stop offset="0.2118" stop-color="#A7A7A8"/>
<stop offset="1" stop-color="#EBECEC"/>
</linearGradient>
<linearGradient id="paint4_linear_6189_6589" x1="202.309" y1="70.2449" x2="307.309" y2="-33.7551" gradientUnits="userSpaceOnUse">
<stop stop-color="#FEFEFE"/>
<stop offset="1" stop-color="#434242"/>
</linearGradient>
<linearGradient id="paint5_linear_6189_6589" x1="195.196" y1="63.0643" x2="300.196" y2="-40.9357" gradientUnits="userSpaceOnUse">
<stop stop-color="#FEFEFE"/>
<stop offset="1" stop-color="#434242"/>
</linearGradient>
<linearGradient id="paint6_linear_6189_6589" x1="189.302" y1="57.1125" x2="294.302" y2="-46.8875" gradientUnits="userSpaceOnUse">
<stop stop-color="#FEFEFE"/>
<stop offset="1" stop-color="#434242"/>
</linearGradient>
<clipPath id="clip0_6189_6589">
<rect width="482.2" height="98.3" fill="white"/>
</clipPath>
</defs>
</svg>
